<mxfile modified="2020-07-29T12:53:10.285Z" host="app.diagrams.net" agent="5.0 (Windows NT 10.0; Win64; x64) AppleWebKit/537.36 (KHTML, like Gecko) Chrome/84.0.4147.105 Safari/537.36" etag="i5ff_74LVo67Y0rrtfQN" version="13.5.5" type="github" pages="5">
  <diagram id="a9hoJPOwp98dZFBnUh_E" name="AMI EC2">
    <mxGraphModel dx="1422" dy="834" grid="1" gridSize="10" guides="1" tooltips="1" connect="1" arrows="1" fold="1" page="1" pageScale="1" pageWidth="1169" pageHeight="827" math="0" shadow="0">
      <root>
        <mxCell id="myHa_eifmncZSACbKJs6-0" />
        <mxCell id="myHa_eifmncZSACbKJs6-1" parent="myHa_eifmncZSACbKJs6-0" />
        <mxCell id="9VxVtsNuIsfSA8PjhN2Z-0" value="Architecting on AWS Day 1" style="text;html=1;resizable=0;points=[];autosize=1;align=left;verticalAlign=top;spacingTop=-4;fontSize=30;fontStyle=1;labelBackgroundColor=none;" parent="myHa_eifmncZSACbKJs6-1" vertex="1">
          <mxGeometry x="36.5" y="26.5" width="400" height="40" as="geometry" />
        </mxCell>
        <mxCell id="9VxVtsNuIsfSA8PjhN2Z-1" value="EC2&lt;br style=&quot;font-size: 16px;&quot;&gt;INSTANCE (VM)" style="rounded=1;whiteSpace=wrap;html=1;fontStyle=1;fontSize=16;" parent="myHa_eifmncZSACbKJs6-1" vertex="1">
          <mxGeometry x="410" y="150" width="230" height="190" as="geometry" />
        </mxCell>
        <mxCell id="9VxVtsNuIsfSA8PjhN2Z-2" value="Virtual Disk&lt;br&gt;30GB" style="shape=cylinder;whiteSpace=wrap;html=1;boundedLbl=1;backgroundOutline=1;fontSize=16;" parent="myHa_eifmncZSACbKJs6-1" vertex="1">
          <mxGeometry x="376.5" y="440" width="60" height="80" as="geometry" />
        </mxCell>
        <mxCell id="9VxVtsNuIsfSA8PjhN2Z-3" value="" style="endArrow=none;html=1;fontSize=16;exitX=0.358;exitY=0.038;exitDx=0;exitDy=0;exitPerimeter=0;" parent="myHa_eifmncZSACbKJs6-1" source="9VxVtsNuIsfSA8PjhN2Z-2" target="9VxVtsNuIsfSA8PjhN2Z-1" edge="1">
          <mxGeometry width="50" height="50" relative="1" as="geometry">
            <mxPoint x="560" y="430" as="sourcePoint" />
            <mxPoint x="610" y="380" as="targetPoint" />
          </mxGeometry>
        </mxCell>
        <mxCell id="9VxVtsNuIsfSA8PjhN2Z-4" value="AMAZON&lt;br&gt;MACHINE&lt;br&gt;IMAGE (AMI)&lt;br&gt;30GB disk" style="rounded=1;whiteSpace=wrap;html=1;fontSize=16;fontStyle=1" parent="myHa_eifmncZSACbKJs6-1" vertex="1">
          <mxGeometry x="60" y="180" width="120" height="60" as="geometry" />
        </mxCell>
        <mxCell id="9VxVtsNuIsfSA8PjhN2Z-5" value="" style="shape=flexArrow;endArrow=classic;html=1;fontSize=16;" parent="myHa_eifmncZSACbKJs6-1" edge="1">
          <mxGeometry width="50" height="50" relative="1" as="geometry">
            <mxPoint x="200" y="210" as="sourcePoint" />
            <mxPoint x="380" y="220" as="targetPoint" />
          </mxGeometry>
        </mxCell>
        <mxCell id="9VxVtsNuIsfSA8PjhN2Z-8" value="" style="shape=flexArrow;endArrow=classic;html=1;fontSize=16;" parent="myHa_eifmncZSACbKJs6-1" edge="1">
          <mxGeometry width="50" height="50" relative="1" as="geometry">
            <mxPoint x="310" y="570" as="sourcePoint" />
            <mxPoint x="360" y="520" as="targetPoint" />
          </mxGeometry>
        </mxCell>
        <mxCell id="9VxVtsNuIsfSA8PjhN2Z-9" value="EBS VOLUME" style="text;html=1;strokeColor=none;fillColor=none;align=center;verticalAlign=middle;whiteSpace=wrap;rounded=0;fontSize=16;fontStyle=1" parent="myHa_eifmncZSACbKJs6-1" vertex="1">
          <mxGeometry x="260" y="600" width="40" height="20" as="geometry" />
        </mxCell>
      </root>
    </mxGraphModel>
  </diagram>
  <diagram id="c9l8RdrjhcEDx9c3xSpt" name="EBS Optimized">
    <mxGraphModel dx="1422" dy="834" grid="1" gridSize="10" guides="1" tooltips="1" connect="1" arrows="1" fold="1" page="1" pageScale="1" pageWidth="1169" pageHeight="827" math="0" shadow="0">
      <root>
        <mxCell id="30_Q8J2z7akfpM7OeNHV-0" />
        <mxCell id="30_Q8J2z7akfpM7OeNHV-1" parent="30_Q8J2z7akfpM7OeNHV-0" />
        <mxCell id="30_Q8J2z7akfpM7OeNHV-8" value="" style="rounded=1;whiteSpace=wrap;html=1;align=left;fontSize=16;fillColor=#fff2cc;strokeColor=#d6b656;" parent="30_Q8J2z7akfpM7OeNHV-1" vertex="1">
          <mxGeometry x="40" y="80" width="590" height="690" as="geometry" />
        </mxCell>
        <mxCell id="30_Q8J2z7akfpM7OeNHV-2" value="NITRO HYPERVISOR&lt;br&gt;MODIFIED KVM" style="rounded=1;whiteSpace=wrap;html=1;fontSize=16;" parent="30_Q8J2z7akfpM7OeNHV-1" vertex="1">
          <mxGeometry x="100" y="120" width="210" height="280" as="geometry" />
        </mxCell>
        <mxCell id="30_Q8J2z7akfpM7OeNHV-4" value="CUSTOM MADE PHYSICAL SERVER" style="text;html=1;strokeColor=none;fillColor=none;align=center;verticalAlign=middle;whiteSpace=wrap;rounded=0;fontSize=16;" parent="30_Q8J2z7akfpM7OeNHV-1" vertex="1">
          <mxGeometry x="60" y="470" width="350" height="20" as="geometry" />
        </mxCell>
        <mxCell id="30_Q8J2z7akfpM7OeNHV-5" value="ELASTIC BLOCK STORAGE" style="rounded=1;whiteSpace=wrap;html=1;align=center;fontSize=16;" parent="30_Q8J2z7akfpM7OeNHV-1" vertex="1">
          <mxGeometry x="120" y="570" width="490" height="60" as="geometry" />
        </mxCell>
        <mxCell id="30_Q8J2z7akfpM7OeNHV-6" value="ebs vol1" style="shape=cylinder;whiteSpace=wrap;html=1;boundedLbl=1;backgroundOutline=1;fontSize=16;align=center;" parent="30_Q8J2z7akfpM7OeNHV-1" vertex="1">
          <mxGeometry x="140" y="590" width="60" height="80" as="geometry" />
        </mxCell>
        <mxCell id="30_Q8J2z7akfpM7OeNHV-7" value="" style="endArrow=none;html=1;fontSize=16;entryX=0.408;entryY=0.95;entryDx=0;entryDy=0;entryPerimeter=0;" parent="30_Q8J2z7akfpM7OeNHV-1" source="30_Q8J2z7akfpM7OeNHV-6" target="30_Q8J2z7akfpM7OeNHV-3" edge="1">
          <mxGeometry width="50" height="50" relative="1" as="geometry">
            <mxPoint x="530" y="470" as="sourcePoint" />
            <mxPoint x="580" y="420" as="targetPoint" />
          </mxGeometry>
        </mxCell>
        <mxCell id="30_Q8J2z7akfpM7OeNHV-9" value="AVAILABILITY ZONE&lt;br&gt;a" style="text;html=1;strokeColor=none;fillColor=none;align=center;verticalAlign=middle;whiteSpace=wrap;rounded=0;fontSize=25;fontStyle=1" parent="30_Q8J2z7akfpM7OeNHV-1" vertex="1">
          <mxGeometry x="460" y="490" width="40" height="20" as="geometry" />
        </mxCell>
        <mxCell id="30_Q8J2z7akfpM7OeNHV-10" value="NITRO HYPERVISOR&lt;br&gt;MODIFIED KVM" style="rounded=1;whiteSpace=wrap;html=1;fontSize=16;" parent="30_Q8J2z7akfpM7OeNHV-1" vertex="1">
          <mxGeometry x="320" y="120" width="210" height="280" as="geometry" />
        </mxCell>
        <mxCell id="30_Q8J2z7akfpM7OeNHV-11" value="" style="rounded=1;whiteSpace=wrap;html=1;align=left;fontSize=16;fillColor=#fff2cc;strokeColor=#d6b656;" parent="30_Q8J2z7akfpM7OeNHV-1" vertex="1">
          <mxGeometry x="660" y="80" width="590" height="690" as="geometry" />
        </mxCell>
        <mxCell id="30_Q8J2z7akfpM7OeNHV-12" value="AVAILABILITY ZONE&lt;br&gt;b" style="text;html=1;strokeColor=none;fillColor=none;align=center;verticalAlign=middle;whiteSpace=wrap;rounded=0;fontSize=25;fontStyle=1" parent="30_Q8J2z7akfpM7OeNHV-1" vertex="1">
          <mxGeometry x="940" y="490" width="40" height="20" as="geometry" />
        </mxCell>
        <mxCell id="30_Q8J2z7akfpM7OeNHV-13" value="NITRO HYPERVISOR&lt;br&gt;MODIFIED KVM" style="rounded=1;whiteSpace=wrap;html=1;fontSize=16;" parent="30_Q8J2z7akfpM7OeNHV-1" vertex="1">
          <mxGeometry x="700" y="120" width="210" height="280" as="geometry" />
        </mxCell>
        <mxCell id="30_Q8J2z7akfpM7OeNHV-14" value="NITRO HYPERVISOR&lt;br&gt;MODIFIED KVM" style="rounded=1;whiteSpace=wrap;html=1;fontSize=16;" parent="30_Q8J2z7akfpM7OeNHV-1" vertex="1">
          <mxGeometry x="930" y="120" width="210" height="280" as="geometry" />
        </mxCell>
        <mxCell id="30_Q8J2z7akfpM7OeNHV-15" value="ELASTIC BLOCK STORAGE" style="rounded=1;whiteSpace=wrap;html=1;align=center;fontSize=16;" parent="30_Q8J2z7akfpM7OeNHV-1" vertex="1">
          <mxGeometry x="700" y="570" width="490" height="60" as="geometry" />
        </mxCell>
        <mxCell id="30_Q8J2z7akfpM7OeNHV-3" value="EC2 INSTANCE (VM)&lt;br&gt;EBS OPTIMIZED" style="rounded=1;whiteSpace=wrap;html=1;fontSize=16;fillColor=#e1d5e7;strokeColor=#9673a6;" parent="30_Q8J2z7akfpM7OeNHV-1" vertex="1">
          <mxGeometry x="410" y="30" width="120" height="160" as="geometry" />
        </mxCell>
        <mxCell id="30_Q8J2z7akfpM7OeNHV-16" value="EC2 INSTANCE (VM)" style="rounded=1;whiteSpace=wrap;html=1;fontSize=16;" parent="30_Q8J2z7akfpM7OeNHV-1" vertex="1">
          <mxGeometry x="750" y="40" width="120" height="160" as="geometry" />
        </mxCell>
        <mxCell id="30_Q8J2z7akfpM7OeNHV-17" value="ebs vol1" style="shape=cylinder;whiteSpace=wrap;html=1;boundedLbl=1;backgroundOutline=1;fontSize=16;align=center;" parent="30_Q8J2z7akfpM7OeNHV-1" vertex="1">
          <mxGeometry x="740" y="590" width="60" height="80" as="geometry" />
        </mxCell>
        <mxCell id="30_Q8J2z7akfpM7OeNHV-18" value="" style="endArrow=none;html=1;fontSize=16;entryX=0.408;entryY=0.95;entryDx=0;entryDy=0;entryPerimeter=0;" parent="30_Q8J2z7akfpM7OeNHV-1" edge="1">
          <mxGeometry width="50" height="50" relative="1" as="geometry">
            <mxPoint x="790.0040926640927" y="678" as="sourcePoint" />
            <mxPoint x="807.5" y="200" as="targetPoint" />
          </mxGeometry>
        </mxCell>
        <mxCell id="30_Q8J2z7akfpM7OeNHV-19" value="S3 (http/https)" style="rounded=1;whiteSpace=wrap;html=1;align=center;fontSize=25;" parent="30_Q8J2z7akfpM7OeNHV-1" vertex="1">
          <mxGeometry x="70" y="694" width="1170" height="60" as="geometry" />
        </mxCell>
        <mxCell id="30_Q8J2z7akfpM7OeNHV-20" value="EFS (nfs 3/4)" style="rounded=1;whiteSpace=wrap;html=1;align=center;fontSize=25;" parent="30_Q8J2z7akfpM7OeNHV-1" vertex="1">
          <mxGeometry x="70" y="760" width="1170" height="60" as="geometry" />
        </mxCell>
        <mxCell id="30_Q8J2z7akfpM7OeNHV-22" value="" style="rounded=1;whiteSpace=wrap;html=1;fontSize=25;align=center;arcSize=50;fillColor=#f8cecc;strokeColor=#b85450;" parent="30_Q8J2z7akfpM7OeNHV-1" vertex="1">
          <mxGeometry x="250" y="395" width="10" height="175" as="geometry" />
        </mxCell>
        <mxCell id="30_Q8J2z7akfpM7OeNHV-23" value="" style="rounded=1;whiteSpace=wrap;html=1;fontSize=25;align=center;fillColor=#d5e8d4;strokeColor=#82b366;" parent="30_Q8J2z7akfpM7OeNHV-1" vertex="1">
          <mxGeometry x="110" y="390" width="90" height="180" as="geometry" />
        </mxCell>
        <mxCell id="30_Q8J2z7akfpM7OeNHV-24" value="EC2 INSTANCE (VM)&lt;br&gt;EBS OPTIMIZED" style="rounded=1;whiteSpace=wrap;html=1;fontSize=16;fillColor=#f8cecc;strokeColor=#b85450;" parent="30_Q8J2z7akfpM7OeNHV-1" vertex="1">
          <mxGeometry x="30" y="40" width="120" height="160" as="geometry" />
        </mxCell>
        <mxCell id="30_Q8J2z7akfpM7OeNHV-25" value="ebs vol1" style="shape=cylinder;whiteSpace=wrap;html=1;boundedLbl=1;backgroundOutline=1;fontSize=16;align=center;" parent="30_Q8J2z7akfpM7OeNHV-1" vertex="1">
          <mxGeometry x="70" y="590" width="60" height="80" as="geometry" />
        </mxCell>
        <mxCell id="30_Q8J2z7akfpM7OeNHV-26" value="" style="endArrow=none;html=1;fontSize=16;entryX=0.5;entryY=1;entryDx=0;entryDy=0;" parent="30_Q8J2z7akfpM7OeNHV-1" source="30_Q8J2z7akfpM7OeNHV-25" target="30_Q8J2z7akfpM7OeNHV-24" edge="1">
          <mxGeometry width="50" height="50" relative="1" as="geometry">
            <mxPoint x="183.64931506849325" y="600" as="sourcePoint" />
            <mxPoint x="219.9599999999998" y="202" as="targetPoint" />
          </mxGeometry>
        </mxCell>
        <mxCell id="30_Q8J2z7akfpM7OeNHV-27" value="FSx for Windows" style="rounded=1;whiteSpace=wrap;html=1;align=center;fontSize=25;" parent="30_Q8J2z7akfpM7OeNHV-1" vertex="1">
          <mxGeometry x="70" y="827" width="1170" height="60" as="geometry" />
        </mxCell>
        <mxCell id="UhDWQSihi18F-htyyiQj-0" value="EC2 INSTANCE (VM)&lt;br&gt;EBS OPTIMIZED" style="rounded=1;whiteSpace=wrap;html=1;fontSize=16;fillColor=#f8cecc;strokeColor=#b85450;" parent="30_Q8J2z7akfpM7OeNHV-1" vertex="1">
          <mxGeometry x="120" y="40" width="120" height="160" as="geometry" />
        </mxCell>
        <mxCell id="UhDWQSihi18F-htyyiQj-1" value="EC2 INSTANCE (VM)&lt;br&gt;EBS OPTIMIZED" style="rounded=1;whiteSpace=wrap;html=1;fontSize=16;fillColor=#f8cecc;strokeColor=#b85450;" parent="30_Q8J2z7akfpM7OeNHV-1" vertex="1">
          <mxGeometry x="190" y="40" width="120" height="160" as="geometry" />
        </mxCell>
      </root>
    </mxGraphModel>
  </diagram>
  <diagram id="lFavbJDsnpIxODFTOhfb" name="EC2 Family Generation">
    <mxGraphModel dx="1422" dy="834" grid="1" gridSize="10" guides="1" tooltips="1" connect="1" arrows="1" fold="1" page="1" pageScale="1" pageWidth="1169" pageHeight="827" math="0" shadow="0">
      <root>
        <mxCell id="lrX-u7omkcBHvmosj1Eq-0" />
        <mxCell id="lrX-u7omkcBHvmosj1Eq-1" parent="lrX-u7omkcBHvmosj1Eq-0" />
        <mxCell id="DadSsC-UgsnjRgFZuRqY-0" value="NITRO HYPERVISOR&lt;br&gt;MODIFIED KVM" style="rounded=1;whiteSpace=wrap;html=1;fontSize=16;" parent="lrX-u7omkcBHvmosj1Eq-1" vertex="1">
          <mxGeometry x="100" y="120" width="310" height="530" as="geometry" />
        </mxCell>
        <mxCell id="DadSsC-UgsnjRgFZuRqY-3" value="Intel CPU&lt;br&gt;Haswell Generation" style="pointerEvents=1;shadow=0;dashed=0;html=1;strokeColor=none;fillColor=#434445;aspect=fixed;labelPosition=center;verticalLabelPosition=bottom;verticalAlign=top;align=center;outlineConnect=0;shape=mxgraph.vvd.cpu;fontSize=25;" parent="lrX-u7omkcBHvmosj1Eq-1" vertex="1">
          <mxGeometry x="220" y="510" width="50" height="50" as="geometry" />
        </mxCell>
        <mxCell id="DadSsC-UgsnjRgFZuRqY-4" value="NITRO HYPERVISOR&lt;br&gt;MODIFIED KVM" style="rounded=1;whiteSpace=wrap;html=1;fontSize=16;" parent="lrX-u7omkcBHvmosj1Eq-1" vertex="1">
          <mxGeometry x="790" y="130" width="310" height="530" as="geometry" />
        </mxCell>
        <mxCell id="DadSsC-UgsnjRgFZuRqY-5" value="Intel CPU&lt;br&gt;Skylake" style="pointerEvents=1;shadow=0;dashed=0;html=1;strokeColor=none;fillColor=#434445;aspect=fixed;labelPosition=center;verticalLabelPosition=bottom;verticalAlign=top;align=center;outlineConnect=0;shape=mxgraph.vvd.cpu;fontSize=25;" parent="lrX-u7omkcBHvmosj1Eq-1" vertex="1">
          <mxGeometry x="920" y="520" width="50" height="50" as="geometry" />
        </mxCell>
        <mxCell id="DadSsC-UgsnjRgFZuRqY-6" value="NITRO HYPERVISOR&lt;br&gt;MODIFIED KVM" style="rounded=1;whiteSpace=wrap;html=1;fontSize=16;" parent="lrX-u7omkcBHvmosj1Eq-1" vertex="1">
          <mxGeometry x="440" y="120" width="310" height="530" as="geometry" />
        </mxCell>
        <mxCell id="DadSsC-UgsnjRgFZuRqY-7" value="Intel CPU&lt;br&gt;Haswell Generation" style="pointerEvents=1;shadow=0;dashed=0;html=1;strokeColor=none;fillColor=#434445;aspect=fixed;labelPosition=center;verticalLabelPosition=bottom;verticalAlign=top;align=center;outlineConnect=0;shape=mxgraph.vvd.cpu;fontSize=25;" parent="lrX-u7omkcBHvmosj1Eq-1" vertex="1">
          <mxGeometry x="560" y="510" width="50" height="50" as="geometry" />
        </mxCell>
        <mxCell id="DadSsC-UgsnjRgFZuRqY-2" value="EC2 INSTANCE5&lt;br&gt;(VM)&lt;br&gt;c5.large" style="rounded=1;whiteSpace=wrap;html=1;fontSize=16;" parent="lrX-u7omkcBHvmosj1Eq-1" vertex="1">
          <mxGeometry x="885" y="50" width="120" height="160" as="geometry" />
        </mxCell>
        <mxCell id="DadSsC-UgsnjRgFZuRqY-8" value="AES-NI&lt;br style=&quot;font-size: 15px;&quot;&gt;TSX&lt;br style=&quot;font-size: 15px;&quot;&gt;" style="text;html=1;strokeColor=none;fillColor=none;align=center;verticalAlign=middle;whiteSpace=wrap;rounded=0;fontSize=15;" parent="lrX-u7omkcBHvmosj1Eq-1" vertex="1">
          <mxGeometry x="930" y="535" width="160" height="20" as="geometry" />
        </mxCell>
      </root>
    </mxGraphModel>
  </diagram>
  <diagram id="xwk_7QCXA7Rg6-CkUwVS" name="Multiple AWS Accounts">
    <mxGraphModel dx="1422" dy="834" grid="1" gridSize="10" guides="1" tooltips="1" connect="1" arrows="1" fold="1" page="1" pageScale="1" pageWidth="1169" pageHeight="827" math="0" shadow="0">
      <root>
        <mxCell id="qrPvkSgjl9rmjWjUxqSh-0" />
        <mxCell id="qrPvkSgjl9rmjWjUxqSh-1" parent="qrPvkSgjl9rmjWjUxqSh-0" />
        <mxCell id="lIJ1OSKMAMX_iNURW7vJ-0" value="AWS ACCOUNT 2" style="points=[[0,0],[0.25,0],[0.5,0],[0.75,0],[1,0],[1,0.25],[1,0.5],[1,0.75],[1,1],[0.75,1],[0.5,1],[0.25,1],[0,1],[0,0.75],[0,0.5],[0,0.25]];outlineConnect=0;gradientColor=none;html=1;whiteSpace=wrap;fontSize=12;fontStyle=0;shape=mxgraph.aws4.group;grIcon=mxgraph.aws4.group_region;strokeColor=#147EBA;fillColor=none;verticalAlign=top;align=left;spacingLeft=30;fontColor=#147EBA;dashed=0;" parent="qrPvkSgjl9rmjWjUxqSh-1" vertex="1">
          <mxGeometry x="610" y="70" width="480" height="650" as="geometry" />
        </mxCell>
        <mxCell id="qrPvkSgjl9rmjWjUxqSh-2" value="AWS ACCOUNT 1" style="points=[[0,0],[0.25,0],[0.5,0],[0.75,0],[1,0],[1,0.25],[1,0.5],[1,0.75],[1,1],[0.75,1],[0.5,1],[0.25,1],[0,1],[0,0.75],[0,0.5],[0,0.25]];outlineConnect=0;gradientColor=none;html=1;whiteSpace=wrap;fontSize=12;fontStyle=0;shape=mxgraph.aws4.group;grIcon=mxgraph.aws4.group_region;strokeColor=#147EBA;fillColor=none;verticalAlign=top;align=left;spacingLeft=30;fontColor=#147EBA;dashed=0;" parent="qrPvkSgjl9rmjWjUxqSh-1" vertex="1">
          <mxGeometry x="50" y="70" width="480" height="650" as="geometry" />
        </mxCell>
        <mxCell id="qrPvkSgjl9rmjWjUxqSh-3" value="VPC-TEST&lt;br&gt;" style="points=[[0,0],[0.25,0],[0.5,0],[0.75,0],[1,0],[1,0.25],[1,0.5],[1,0.75],[1,1],[0.75,1],[0.5,1],[0.25,1],[0,1],[0,0.75],[0,0.5],[0,0.25]];outlineConnect=0;gradientColor=none;html=1;whiteSpace=wrap;fontSize=12;fontStyle=0;shape=mxgraph.aws4.group;grIcon=mxgraph.aws4.group_vpc;strokeColor=#248814;fillColor=none;verticalAlign=top;align=left;spacingLeft=30;fontColor=#AAB7B8;dashed=0;" parent="qrPvkSgjl9rmjWjUxqSh-1" vertex="1">
          <mxGeometry x="130" y="190" width="340" height="340" as="geometry" />
        </mxCell>
        <mxCell id="qrPvkSgjl9rmjWjUxqSh-4" value="EC2 INSTANCE" style="outlineConnect=0;fontColor=#232F3E;gradientColor=#F78E04;gradientDirection=north;fillColor=#D05C17;strokeColor=#ffffff;dashed=0;verticalLabelPosition=bottom;verticalAlign=top;align=center;html=1;fontSize=12;fontStyle=0;aspect=fixed;shape=mxgraph.aws4.resourceIcon;resIcon=mxgraph.aws4.ec2;" parent="qrPvkSgjl9rmjWjUxqSh-1" vertex="1">
          <mxGeometry x="200" y="250" width="78" height="78" as="geometry" />
        </mxCell>
        <mxCell id="qrPvkSgjl9rmjWjUxqSh-5" value="EC2 INSTANCE" style="outlineConnect=0;fontColor=#232F3E;gradientColor=#F78E04;gradientDirection=north;fillColor=#D05C17;strokeColor=#ffffff;dashed=0;verticalLabelPosition=bottom;verticalAlign=top;align=center;html=1;fontSize=12;fontStyle=0;aspect=fixed;shape=mxgraph.aws4.resourceIcon;resIcon=mxgraph.aws4.ec2;" parent="qrPvkSgjl9rmjWjUxqSh-1" vertex="1">
          <mxGeometry x="310" y="250" width="78" height="78" as="geometry" />
        </mxCell>
        <mxCell id="qrPvkSgjl9rmjWjUxqSh-6" value="VPC-PROD" style="points=[[0,0],[0.25,0],[0.5,0],[0.75,0],[1,0],[1,0.25],[1,0.5],[1,0.75],[1,1],[0.75,1],[0.5,1],[0.25,1],[0,1],[0,0.75],[0,0.5],[0,0.25]];outlineConnect=0;gradientColor=none;html=1;whiteSpace=wrap;fontSize=12;fontStyle=0;shape=mxgraph.aws4.group;grIcon=mxgraph.aws4.group_vpc;strokeColor=#248814;fillColor=none;verticalAlign=top;align=left;spacingLeft=30;fontColor=#AAB7B8;dashed=0;" parent="qrPvkSgjl9rmjWjUxqSh-1" vertex="1">
          <mxGeometry x="680" y="190" width="340" height="340" as="geometry" />
        </mxCell>
        <mxCell id="qrPvkSgjl9rmjWjUxqSh-7" value="EC2 INSTANCE" style="outlineConnect=0;fontColor=#232F3E;gradientColor=#F78E04;gradientDirection=north;fillColor=#D05C17;strokeColor=#ffffff;dashed=0;verticalLabelPosition=bottom;verticalAlign=top;align=center;html=1;fontSize=12;fontStyle=0;aspect=fixed;shape=mxgraph.aws4.resourceIcon;resIcon=mxgraph.aws4.ec2;" parent="qrPvkSgjl9rmjWjUxqSh-1" vertex="1">
          <mxGeometry x="730" y="240" width="78" height="78" as="geometry" />
        </mxCell>
        <mxCell id="qrPvkSgjl9rmjWjUxqSh-8" value="EC2 INSTANCE" style="outlineConnect=0;fontColor=#232F3E;gradientColor=#F78E04;gradientDirection=north;fillColor=#D05C17;strokeColor=#ffffff;dashed=0;verticalLabelPosition=bottom;verticalAlign=top;align=center;html=1;fontSize=12;fontStyle=0;aspect=fixed;shape=mxgraph.aws4.resourceIcon;resIcon=mxgraph.aws4.ec2;" parent="qrPvkSgjl9rmjWjUxqSh-1" vertex="1">
          <mxGeometry x="830" y="240" width="78" height="78" as="geometry" />
        </mxCell>
        <mxCell id="qrPvkSgjl9rmjWjUxqSh-9" value="S3 BUCKET" style="outlineConnect=0;fontColor=#232F3E;gradientColor=#60A337;gradientDirection=north;fillColor=#277116;strokeColor=#ffffff;dashed=0;verticalLabelPosition=bottom;verticalAlign=top;align=center;html=1;fontSize=12;fontStyle=0;aspect=fixed;shape=mxgraph.aws4.resourceIcon;resIcon=mxgraph.aws4.s3;" parent="qrPvkSgjl9rmjWjUxqSh-1" vertex="1">
          <mxGeometry x="140" y="590" width="78" height="78" as="geometry" />
        </mxCell>
        <mxCell id="qrPvkSgjl9rmjWjUxqSh-10" value="DYNAMODB" style="outlineConnect=0;fontColor=#232F3E;gradientColor=#4D72F3;gradientDirection=north;fillColor=#3334B9;strokeColor=#ffffff;dashed=0;verticalLabelPosition=bottom;verticalAlign=top;align=center;html=1;fontSize=12;fontStyle=0;aspect=fixed;shape=mxgraph.aws4.resourceIcon;resIcon=mxgraph.aws4.dynamodb;" parent="qrPvkSgjl9rmjWjUxqSh-1" vertex="1">
          <mxGeometry x="290" y="590" width="78" height="78" as="geometry" />
        </mxCell>
        <mxCell id="qrPvkSgjl9rmjWjUxqSh-11" value="" style="outlineConnect=0;fontColor=#232F3E;gradientColor=#4D72F3;gradientDirection=north;fillColor=#3334B9;strokeColor=#ffffff;dashed=0;verticalLabelPosition=bottom;verticalAlign=top;align=center;html=1;fontSize=12;fontStyle=0;aspect=fixed;shape=mxgraph.aws4.resourceIcon;resIcon=mxgraph.aws4.aurora;" parent="qrPvkSgjl9rmjWjUxqSh-1" vertex="1">
          <mxGeometry x="200" y="390" width="78" height="78" as="geometry" />
        </mxCell>
        <mxCell id="qrPvkSgjl9rmjWjUxqSh-12" value="" style="outlineConnect=0;fontColor=#232F3E;gradientColor=#4D72F3;gradientDirection=north;fillColor=#3334B9;strokeColor=#ffffff;dashed=0;verticalLabelPosition=bottom;verticalAlign=top;align=center;html=1;fontSize=12;fontStyle=0;aspect=fixed;shape=mxgraph.aws4.resourceIcon;resIcon=mxgraph.aws4.rds;" parent="qrPvkSgjl9rmjWjUxqSh-1" vertex="1">
          <mxGeometry x="310" y="390" width="78" height="78" as="geometry" />
        </mxCell>
        <mxCell id="lIJ1OSKMAMX_iNURW7vJ-1" value="Actor" style="shape=umlActor;verticalLabelPosition=bottom;verticalAlign=top;html=1;outlineConnect=0;align=left;fontSize=21;" parent="qrPvkSgjl9rmjWjUxqSh-1" vertex="1">
          <mxGeometry x="410" y="40" width="30" height="60" as="geometry" />
        </mxCell>
        <mxCell id="lIJ1OSKMAMX_iNURW7vJ-2" value="Actor" style="shape=umlActor;verticalLabelPosition=bottom;verticalAlign=top;html=1;outlineConnect=0;align=left;fontSize=21;" parent="qrPvkSgjl9rmjWjUxqSh-1" vertex="1">
          <mxGeometry x="980" y="30" width="30" height="60" as="geometry" />
        </mxCell>
      </root>
    </mxGraphModel>
  </diagram>
  <diagram id="R_Lt2X5tI7F-5H7WcGeo" name="VPC Public and Private IPs">
    <mxGraphModel dx="2591" dy="1661" grid="1" gridSize="10" guides="1" tooltips="1" connect="1" arrows="1" fold="1" page="1" pageScale="1" pageWidth="1169" pageHeight="827" math="0" shadow="0">
      <root>
        <mxCell id="f_nEQ0TcmGh_ugDaEYJh-0" />
        <mxCell id="f_nEQ0TcmGh_ugDaEYJh-1" parent="f_nEQ0TcmGh_ugDaEYJh-0" />
        <mxCell id="f_nEQ0TcmGh_ugDaEYJh-2" value="VPC" style="points=[[0,0],[0.25,0],[0.5,0],[0.75,0],[1,0],[1,0.25],[1,0.5],[1,0.75],[1,1],[0.75,1],[0.5,1],[0.25,1],[0,1],[0,0.75],[0,0.5],[0,0.25]];outlineConnect=0;gradientColor=none;html=1;whiteSpace=wrap;fontSize=12;fontStyle=0;shape=mxgraph.aws4.group;grIcon=mxgraph.aws4.group_vpc;strokeColor=#248814;fillColor=none;verticalAlign=top;align=left;spacingLeft=30;fontColor=#AAB7B8;dashed=0;" parent="f_nEQ0TcmGh_ugDaEYJh-1" vertex="1">
          <mxGeometry x="150" y="220" width="710" height="270" as="geometry" />
        </mxCell>
        <mxCell id="f_nEQ0TcmGh_ugDaEYJh-3" value="Availability Zone a" style="fillColor=none;strokeColor=#147EBA;dashed=1;verticalAlign=top;fontStyle=0;fontColor=#147EBA;align=center;" parent="f_nEQ0TcmGh_ugDaEYJh-1" vertex="1">
          <mxGeometry x="180" y="170" width="310" height="450" as="geometry" />
        </mxCell>
        <mxCell id="f_nEQ0TcmGh_ugDaEYJh-4" value="Availability Zone B" style="fillColor=none;strokeColor=#147EBA;dashed=1;verticalAlign=top;fontStyle=0;fontColor=#147EBA;align=center;" parent="f_nEQ0TcmGh_ugDaEYJh-1" vertex="1">
          <mxGeometry x="510" y="170" width="310" height="450" as="geometry" />
        </mxCell>
        <mxCell id="f_nEQ0TcmGh_ugDaEYJh-5" value="PUBLIC SUBNET 1&lt;br&gt;&lt;b&gt;&lt;font color=&quot;#ff0000&quot;&gt;10.0.10&lt;/font&gt;&lt;/b&gt;.0/24&lt;br&gt;10.0.10.1 --&amp;gt; 10.0.10.255" style="rounded=1;whiteSpace=wrap;html=1;align=center;fontSize=15;" parent="f_nEQ0TcmGh_ugDaEYJh-1" vertex="1">
          <mxGeometry x="215" y="250" width="240" height="60" as="geometry" />
        </mxCell>
        <mxCell id="f_nEQ0TcmGh_ugDaEYJh-7" value="PUBLIC SUBNET 2&lt;br&gt;&lt;b&gt;&lt;font color=&quot;#ff0000&quot;&gt;10.0.20&lt;/font&gt;&lt;/b&gt;.0/24&lt;br&gt;10.0.20.1 --&amp;gt; 10.0.20.255" style="rounded=1;whiteSpace=wrap;html=1;align=center;fontSize=15;" parent="f_nEQ0TcmGh_ugDaEYJh-1" vertex="1">
          <mxGeometry x="560" y="250" width="240" height="60" as="geometry" />
        </mxCell>
        <mxCell id="f_nEQ0TcmGh_ugDaEYJh-9" value="INTERNET&amp;nbsp;&lt;br&gt;GATEWAY" style="outlineConnect=0;fontColor=#232F3E;gradientColor=none;fillColor=#5A30B5;strokeColor=none;dashed=0;verticalLabelPosition=bottom;verticalAlign=top;align=center;html=1;fontSize=12;fontStyle=0;aspect=fixed;pointerEvents=1;shape=mxgraph.aws4.internet_gateway;" parent="f_nEQ0TcmGh_ugDaEYJh-1" vertex="1">
          <mxGeometry x="466" y="40" width="78" height="78" as="geometry" />
        </mxCell>
        <mxCell id="f_nEQ0TcmGh_ugDaEYJh-10" value="VPC ROUTER" style="outlineConnect=0;fontColor=#232F3E;gradientColor=none;fillColor=#5A30B5;strokeColor=none;dashed=0;verticalLabelPosition=bottom;verticalAlign=top;align=center;html=1;fontSize=12;fontStyle=0;aspect=fixed;pointerEvents=1;shape=mxgraph.aws4.customer_gateway;" parent="f_nEQ0TcmGh_ugDaEYJh-1" vertex="1">
          <mxGeometry x="470" y="307" width="78" height="78" as="geometry" />
        </mxCell>
        <mxCell id="f_nEQ0TcmGh_ugDaEYJh-11" value="" style="endArrow=none;html=1;fontSize=15;entryX=0.531;entryY=0.986;entryDx=0;entryDy=0;entryPerimeter=0;" parent="f_nEQ0TcmGh_ugDaEYJh-1" source="f_nEQ0TcmGh_ugDaEYJh-10" target="f_nEQ0TcmGh_ugDaEYJh-7" edge="1">
          <mxGeometry width="50" height="50" relative="1" as="geometry">
            <mxPoint x="500" y="390" as="sourcePoint" />
            <mxPoint x="550" y="340" as="targetPoint" />
          </mxGeometry>
        </mxCell>
        <mxCell id="f_nEQ0TcmGh_ugDaEYJh-12" value="" style="endArrow=none;html=1;fontSize=15;" parent="f_nEQ0TcmGh_ugDaEYJh-1" source="f_nEQ0TcmGh_ugDaEYJh-10" target="f_nEQ0TcmGh_ugDaEYJh-5" edge="1">
          <mxGeometry width="50" height="50" relative="1" as="geometry">
            <mxPoint x="548" y="371.37359371683306" as="sourcePoint" />
            <mxPoint x="697.44" y="319.15999999999997" as="targetPoint" />
          </mxGeometry>
        </mxCell>
        <mxCell id="f_nEQ0TcmGh_ugDaEYJh-13" value="" style="endArrow=classic;startArrow=classic;html=1;fontSize=15;" parent="f_nEQ0TcmGh_ugDaEYJh-1" target="f_nEQ0TcmGh_ugDaEYJh-9" edge="1">
          <mxGeometry width="50" height="50" relative="1" as="geometry">
            <mxPoint x="504" y="340" as="sourcePoint" />
            <mxPoint x="550" y="340" as="targetPoint" />
          </mxGeometry>
        </mxCell>
        <mxCell id="f_nEQ0TcmGh_ugDaEYJh-14" value="&lt;b&gt;Routing Table&lt;br&gt;&lt;/b&gt;0.0.0.0/0 VIA Internet Gateway" style="rounded=1;whiteSpace=wrap;html=1;fontSize=15;align=left;fillColor=#f8cecc;strokeColor=#b85450;" parent="f_nEQ0TcmGh_ugDaEYJh-1" vertex="1">
          <mxGeometry x="830" y="80" width="210" height="60" as="geometry" />
        </mxCell>
        <mxCell id="f_nEQ0TcmGh_ugDaEYJh-15" value="PRIVATE SUBNET 1" style="rounded=1;whiteSpace=wrap;html=1;align=center;fontSize=15;" parent="f_nEQ0TcmGh_ugDaEYJh-1" vertex="1">
          <mxGeometry x="210" y="400" width="240" height="60" as="geometry" />
        </mxCell>
        <mxCell id="f_nEQ0TcmGh_ugDaEYJh-17" value="" style="endArrow=none;html=1;fontSize=15;" parent="f_nEQ0TcmGh_ugDaEYJh-1" target="f_nEQ0TcmGh_ugDaEYJh-10" edge="1">
          <mxGeometry width="50" height="50" relative="1" as="geometry">
            <mxPoint x="450" y="435" as="sourcePoint" />
            <mxPoint x="500" y="385" as="targetPoint" />
          </mxGeometry>
        </mxCell>
        <mxCell id="f_nEQ0TcmGh_ugDaEYJh-18" value="PRIVATE SUBNET 2" style="rounded=1;whiteSpace=wrap;html=1;align=center;fontSize=15;" parent="f_nEQ0TcmGh_ugDaEYJh-1" vertex="1">
          <mxGeometry x="560" y="400" width="240" height="60" as="geometry" />
        </mxCell>
        <mxCell id="f_nEQ0TcmGh_ugDaEYJh-19" value="" style="endArrow=none;html=1;fontSize=15;" parent="f_nEQ0TcmGh_ugDaEYJh-1" source="f_nEQ0TcmGh_ugDaEYJh-18" target="f_nEQ0TcmGh_ugDaEYJh-10" edge="1">
          <mxGeometry width="50" height="50" relative="1" as="geometry">
            <mxPoint x="460" y="445" as="sourcePoint" />
            <mxPoint x="477.1500000000001" y="424" as="targetPoint" />
          </mxGeometry>
        </mxCell>
        <mxCell id="f_nEQ0TcmGh_ugDaEYJh-21" value="" style="endArrow=none;html=1;fontSize=15;entryX=0;entryY=0.75;entryDx=0;entryDy=0;" parent="f_nEQ0TcmGh_ugDaEYJh-1" source="f_nEQ0TcmGh_ugDaEYJh-5" target="f_nEQ0TcmGh_ugDaEYJh-14" edge="1">
          <mxGeometry width="50" height="50" relative="1" as="geometry">
            <mxPoint x="500" y="370" as="sourcePoint" />
            <mxPoint x="550" y="320" as="targetPoint" />
          </mxGeometry>
        </mxCell>
        <mxCell id="f_nEQ0TcmGh_ugDaEYJh-22" value="" style="endArrow=none;html=1;fontSize=15;entryX=0.54;entryY=0.944;entryDx=0;entryDy=0;exitX=0.944;exitY=0;exitDx=0;exitDy=0;exitPerimeter=0;entryPerimeter=0;" parent="f_nEQ0TcmGh_ugDaEYJh-1" source="f_nEQ0TcmGh_ugDaEYJh-7" target="f_nEQ0TcmGh_ugDaEYJh-14" edge="1">
          <mxGeometry width="50" height="50" relative="1" as="geometry">
            <mxPoint x="400.0847457627119" y="260" as="sourcePoint" />
            <mxPoint x="670" y="113" as="targetPoint" />
          </mxGeometry>
        </mxCell>
        <mxCell id="f_nEQ0TcmGh_ugDaEYJh-25" value="CIDR BLOCK&lt;br style=&quot;font-size: 21px&quot;&gt;10.0.0.0/16&lt;br&gt;10.0 net&amp;nbsp;&lt;br&gt;10.0.0.0 --&amp;gt; 10.0.255.255" style="text;html=1;strokeColor=none;fillColor=none;align=center;verticalAlign=middle;whiteSpace=wrap;rounded=0;fontSize=21;" parent="f_nEQ0TcmGh_ugDaEYJh-1" vertex="1">
          <mxGeometry x="-40" y="40" width="220" height="20" as="geometry" />
        </mxCell>
        <mxCell id="oDsI6YEe8wLzBhidGTgV-0" value="10.0.10.1" style="text;html=1;strokeColor=none;fillColor=none;align=center;verticalAlign=middle;whiteSpace=wrap;rounded=0;fontSize=15;" parent="f_nEQ0TcmGh_ugDaEYJh-1" vertex="1">
          <mxGeometry x="400" y="320" width="40" height="20" as="geometry" />
        </mxCell>
        <mxCell id="oDsI6YEe8wLzBhidGTgV-2" value="Private IP = 10.0.10.25&lt;br&gt;Public IP = 86.3.199.55&lt;br&gt;" style="outlineConnect=0;fontColor=#232F3E;gradientColor=#F78E04;gradientDirection=north;fillColor=#D05C17;strokeColor=#ffffff;dashed=0;verticalLabelPosition=bottom;verticalAlign=top;align=center;html=1;fontSize=12;fontStyle=0;aspect=fixed;shape=mxgraph.aws4.resourceIcon;resIcon=mxgraph.aws4.ec2;" parent="f_nEQ0TcmGh_ugDaEYJh-1" vertex="1">
          <mxGeometry x="210" y="290" width="40" height="40" as="geometry" />
        </mxCell>
        <mxCell id="oDsI6YEe8wLzBhidGTgV-4" value="" style="shape=flexArrow;endArrow=classic;html=1;fontSize=15;" parent="f_nEQ0TcmGh_ugDaEYJh-1" source="f_nEQ0TcmGh_ugDaEYJh-5" edge="1">
          <mxGeometry width="50" height="50" relative="1" as="geometry">
            <mxPoint x="500" y="280" as="sourcePoint" />
            <mxPoint x="380" y="70" as="targetPoint" />
          </mxGeometry>
        </mxCell>
        <mxCell id="oDsI6YEe8wLzBhidGTgV-5" value="1:1&lt;br&gt;NETWORK&lt;br&gt;ADDRESS&lt;br&gt;TRANSLATION" style="text;html=1;strokeColor=none;fillColor=none;align=center;verticalAlign=middle;whiteSpace=wrap;rounded=0;fontSize=15;" parent="f_nEQ0TcmGh_ugDaEYJh-1" vertex="1">
          <mxGeometry x="370" width="40" height="20" as="geometry" />
        </mxCell>
        <mxCell id="oDsI6YEe8wLzBhidGTgV-6" value="86.3.199.55" style="text;html=1;strokeColor=none;fillColor=none;align=center;verticalAlign=middle;whiteSpace=wrap;rounded=0;fontSize=15;" parent="f_nEQ0TcmGh_ugDaEYJh-1" vertex="1">
          <mxGeometry x="250" y="69" width="40" height="20" as="geometry" />
        </mxCell>
      </root>
    </mxGraphModel>
  </diagram>
</mxfile>
